<svg height="800" width="800" version="1.1" id="_x32_" xmlns="http://www.w3.org/2000/svg" viewBox="0 0 512 512" xml:space="preserve">
  <style>
    .st0{fill:#000}
  </style>
  <path class="st0" d="M209.145 273.343c-8.941-6.364-17.106-12.295-23.094-16.882-8.357-6.395-19.547-15.92-31.763-26.711-12.223-10.79-25.447-22.83-37.654-34.084a3999 3999 0 0 1-24.35-22.662L22.853 410.503l25.23-.008 34.052-95.839h70.617l-15.129 45.394-45.402-1.265-39.095 148.19s152.601 17.026 168.994-30.898c7.54-22.053 14.544-44.354 19.916-62.028l22.845-101.931c-10.222-6.996-35.028-24.03-55.736-38.775m263.938 197.7c-49.189-54.872 6.308-141.266 6.308-261.065C479.391 90.18 382.903 0 263.104 0 196.49 0 126.001 20.004 70.552 57.041c-6.876 4.595-10.862 15.177 2.746 19.307 22.108 6.692 56.113 21.741 82.336 54.448 22.061-6.996 50.918-13.464 81.952-13.488 25.471 0 52.455 4.41 77.966 16.802 25.503 12.359 49.372 32.771 68.319 63.869a119.2 119.2 0 0 1 13.808 32.707c2.834 11.006 4.01 21.997 4.01 32.667-.024 29.337-8.837 56.256-17.522 75.964a253 253 0 0 1-5.156 10.919c12.263 4.674 20.172 20.444 24.711 56.481 8.829 69.993 37.822 87.418 58.01 100.258 20.804 13.249 43.545-.032 11.351-35.932"/>
  <path class="st0" d="M346.97 386.537c-1.705-17.034 3.498-28.856 11.719-34.38a224 224 0 0 0 9.902-19.724c8.108-18.315 16.097-43.218 16.073-69.08 0-9.414-1.041-18.963-3.466-28.433a102.8 102.8 0 0 0-11.854-28.072c-17.435-28.521-38.583-46.403-61.236-57.425-22.653-11.015-46.988-15.089-70.522-15.089-26.295-.024-51.47 5.131-71.561 11.087 5.459 8.716 10.374 18.402 14.472 29.257 0 0-15.009 9.653-33.172 25.983a2126 2126 0 0 0 18.219 16.33c12.07 10.662 23.117 20.044 30.849 25.951 4.98 3.811 11.791 8.781 19.348 14.184 7.556 5.412 15.873 11.262 23.91 16.874a4550 4550 0 0 0 36.99 25.527 304 304 0 0 0 2.602 1.776l4.787 3.258-21.197 94.567c15.545 25.736 48.796 66.552 101.796 63.077 16.401 0 15.136-17.658 15.136-17.658s-30.274-32.787-32.795-58.01"/>
</svg>
